<?xml version="1.0" encoding="utf-8"?>
<!-- Generator: Adobe Illustrator 22.1.0, SVG Export Plug-In . SVG Version: 6.00 Build 0)  -->
<svg version="1.1" id="Layer_1" xmlns="http://www.w3.org/2000/svg" xmlns:xlink="http://www.w3.org/1999/xlink" x="0px" y="0px"
	 viewBox="0 0 32 32" style="enable-background:new 0 0 32 32;" xml:space="preserve">
<style type="text/css">
	.st0{fill:#077FAA;}
</style>
<title>plus</title>
<path class="st0" d="M16,0C7.2,0,0,7.2,0,16s7.2,16,16,16s16-7.2,16-16S24.8,0,16,0z M24.8,15.6c0,0.5-0.4,0.9-0.9,0.9h-6.8v6.8
	c0,0.5-0.4,0.9-0.9,0.9h-0.5c-0.5,0-0.9-0.4-0.9-0.9v-6.8H8.1c-0.5,0-0.9-0.4-0.9-0.9v-0.4c0-0.5,0.4-0.9,0.9-0.9h6.8V7.5
	c0-0.5,0.4-0.9,0.9-0.9h0.5c0.5,0,0.9,0.4,0.9,0.9v6.8h6.8c0.5,0,0.9,0.4,0.9,0.9C24.8,15.1,24.8,15.6,24.8,15.6z"/>
</svg>
